<?xml version="1.0" encoding="UTF-8" standalone="no"?>
<svg
   xmlns:dc="http://purl.org/dc/elements/1.1/"
   xmlns:cc="http://creativecommons.org/ns#"
   xmlns:rdf="http://www.w3.org/1999/02/22-rdf-syntax-ns#"
   xmlns:svg="http://www.w3.org/2000/svg"
   xmlns="http://www.w3.org/2000/svg"
   xmlns:xlink="http://www.w3.org/1999/xlink"
   xmlns:sodipodi="http://sodipodi.sourceforge.net/DTD/sodipodi-0.dtd"
   xmlns:inkscape="http://www.inkscape.org/namespaces/inkscape"
   width="483.6488"
   height="495.71359"
   viewBox="0 0 127.96541 131.15756"
   version="1.1"
   id="svg8"
   inkscape:version="1.0.2 (e86c870879, 2021-01-15)"
   sodipodi:docname="salamandradevs.svg">
  <defs
     id="defs2">
    <linearGradient
       inkscape:collect="always"
       id="linearGradient861">
      <stop
         style="stop-color:#bebebe;stop-opacity:1;"
         offset="0"
         id="stop857" />
      <stop
         style="stop-color:#82b4b4;stop-opacity:1"
         offset="1"
         id="stop859" />
    </linearGradient>
    <linearGradient
       inkscape:collect="always"
       xlink:href="#linearGradient861"
       id="linearGradient912"
       gradientUnits="userSpaceOnUse"
       gradientTransform="matrix(10.636981,0,0,10.636981,-670.88645,-2111.2281)"
       x1="68.058548"
       y1="199.24373"
       x2="79.290688"
       y2="199.24373" />
  </defs>
  <sodipodi:namedview
     id="base"
     pagecolor="#ffffff"
     bordercolor="#666666"
     borderopacity="1.0"
     inkscape:pageopacity="0.0"
     inkscape:pageshadow="2"
     inkscape:zoom="0.70710678"
     inkscape:cx="-380.98532"
     inkscape:cy="72.203972"
     inkscape:document-units="px"
     inkscape:current-layer="layer1"
     showgrid="false"
     inkscape:window-width="1920"
     inkscape:window-height="1051"
     inkscape:window-x="0"
     inkscape:window-y="0"
     inkscape:window-maximized="1"
     inkscape:snap-global="false"
     showguides="true"
     inkscape:guide-bbox="true"
     units="px"
     inkscape:pagecheckerboard="0"
     inkscape:document-rotation="0"
     fit-margin-top="0"
     fit-margin-left="0"
     fit-margin-right="0"
     fit-margin-bottom="0" />
  <metadata
     id="metadata5">
    <rdf:RDF>
      <cc:Work
         rdf:about="">
        <dc:format>image/svg+xml</dc:format>
        <dc:type
           rdf:resource="http://purl.org/dc/dcmitype/StillImage" />
        <dc:title></dc:title>
      </cc:Work>
    </rdf:RDF>
  </metadata>
  <g
     inkscape:label="Capa 1"
     inkscape:groupmode="layer"
     id="layer1"
     transform="translate(-79.848434,-8.6392451)">
    <path
       inkscape:export-ydpi="300.08838"
       inkscape:export-xdpi="300.08838"
       inkscape:export-filename="/home/haldrik/dev/salamandradevs/salamandra_fhd.png"
       sodipodi:nodetypes="czzssszzzzzzzszcszsczzzzzzzzzzczszczzzzzzzzzzczccssccszzzzzzzzzssscc"
       inkscape:connector-curvature="0"
       id="path880"
       d="m 137.35099,33.850386 c -7.04209,3.57178 -12.67577,0.787716 -16.85488,1.829796 -4.17758,1.04207 -7.5052,4.25945 -8.61423,3.6264 -1.11265,-0.63516 -0.25756,-2.29534 0.10298,-4.74161 0.25756,-1.88276 -0.20605,-3.1046 0.0111,-4.09207 0.25755,-1.0977 1.41141,-2.37621 2.32315,-3.39408 1.74624,-1.93063 8.37214,-4.43512 5.66163,-6.77197 -2.70435,-2.33604 -5.82131,6.71748 -8.03938,5.43556 -2.22529,-1.28211 3.51307,-11.16032 -0.55118,-11.40469 -4.1106,-0.2524 -0.25755,11.16604 -2.58071,11.12519 -2.2974,-0.0439 -2.44163,-11.16475 -6.06081,-9.43871 -3.626387,1.72615 3.97152,8.14733 2.2974,9.87837 -1.67411,1.73129 -7.363527,-6.17523 -9.185477,-2.76358 -1.8235,3.41314 8.601337,3.61866 10.497467,7.0202 0.6542,1.17396 -0.55117,2.70024 -1.17446,5.21877 -0.55116,2.51891 -1.14869,7.58643 0.25756,9.50929 1.22082,1.45829 5.83932,2.20314 10.94975,0.60784 1.98834,-0.62895 4.31891,-1.40612 5.18841,0.31848 0.86025,1.72563 -6.13931,6.54817 -9.23771,10.06577 -8.17793,9.2783 -6.81442,19.68347 -5.20728,24.53048 -19.985844,-8.32828 -9.927247,11.99643 -13.961603,15.89931 -4.033326,3.903008 -11.278909,-6.18263 -13.11631,-2.62862 -1.844108,3.55479 9.184971,4.03335 9.08453,6.531528 -0.102988,2.49778 -10.460399,2.6446 -8.974302,5.82857 1.488677,3.18494 9.522886,-5.1617 10.92142,-3.52905 1.401104,1.63342 -5.661603,7.80668 -3.111282,10.14191 2.544659,2.33447 3.770628,-9.96717 5.507588,-8.90162 1.746232,1.06473 -1.246566,9.49269 2.457082,9.69092 3.70882,0.21119 -1.47836,-7.67293 0.022,-10.12825 1.49897,-2.45451 3.95605,-3.23851 5.654897,-6.736808 1.69987,-3.49812 0.36058,-7.69433 -0.25756,-9.29036 1.54534,0.25246 10.24816,4.41142 12.10721,17.674178 1.85955,13.2616 11.22341,32.3196 23.73093,34.56754 15.60794,2.80517 23.71205,-17.37807 34.49765,-16.4968 10.7856,0.88126 24.76626,15.25298 36.11728,-10.36706 -18.88397,21.23342 -25.16238,4.76909 -34.65181,2.33055 -9.48944,-2.43854 -13.68523,7.21602 -27.32594,10.37891 -13.64172,3.16228 -17.85584,-12.04482 -16.992,-20.35404 0.86024,-8.309038 13.22502,-16.367598 16.53048,-12.708558 3.31219,3.65936 0.41211,6.88973 -1.87501,9.440388 -2.31284,2.55082 -8.97068,1.90797 -7.61954,5.26118 1.35474,3.35341 6.17414,-2.21909 8.57354,-2.24176 2.39013,-0.0258 0.80358,13.20022 4.31664,10.37255 3.51306,-2.82692 -2.56012,-9.19836 -0.25756,-11.09453 2.2665,-1.89612 5.69816,8.66814 8.14393,5.38829 2.44164,-3.27923 -6.92723,-5.86847 -6.06082,-7.95679 1.1487,-2.821798 10.7602,2.24433 10.74421,-1.515468 -0.0152,-3.76032 -8.83571,0.237018 -10.28473,-1.551 -0.87052,0.0514 12.71764,-31.56638 -19.5449,-10.24024 13.31667,-14.28875 5.62168,-30.880861 10.57808,-31.690411 2.33348,-0.38119 2.35468,2.771211 3.89811,4.760916 2.10949,2.719436 3.99729,5.664255 5.90114,5.867355 1.97287,0.45845 12.58,-4.907903 16.87347,-8.560163 2.24072,-1.96308 3.34823,-4.07248 4.1827,-4.18838 2.77646,-0.38116 9.7145,5.74508 11.1419,2.33037 1.432,-3.41468 -8.90683,-2.43288 -9.04798,-4.52421 -0.10309,-2.09343 10.83695,-2.74557 8.84655,-5.82981 -1.98317,-3.08449 -8.12385,4.38567 -9.44202,3.00518 -1.31868,-1.38052 7.03027,-8.82687 3.6161,-10.50268 -3.42035,-1.67721 -4.00244,8.89598 -5.60597,9.00894 -1.60716,0.1031 0.0514,-9.83266 -3.35337,-9.10289 -3.44097,0.72887 2.03983,8.55115 1.44745,10.584 -0.55117,2.03264 -2.20467,1.50464 -5.93153,4.26153 -3.71911,2.75637 -6.25426,3.349644 -10.00017,3.512364 -1.21566,0.0514 -0.57969,-3.74112 -2.5946,-6.580326 -1.3634,-1.921156 -4.15872,-7.482621 -1.91275,-9.645925 6.3923,-6.157023 24.96052,-2.724631 22.43882,-30.00001 -31.06523,-10.11690541 -28.8665,16.948168 -35.19528,22.969844 z"
       style="fill:#1482c8;fill-opacity:1;stroke:none;stroke-width:0.0398341;stroke-linecap:butt;stroke-linejoin:miter;stroke-miterlimit:4;stroke-dasharray:none;stroke-opacity:1" />
  </g>
</svg>
