<?xml version="1.0" encoding="UTF-8" standalone="no"?>
<!-- Generator: Adobe Illustrator 22.0.1, SVG Export Plug-In . SVG Version: 6.00 Build 0)  -->

<svg
   xmlns:dc="http://purl.org/dc/elements/1.1/"
   xmlns:cc="http://creativecommons.org/ns#"
   xmlns:rdf="http://www.w3.org/1999/02/22-rdf-syntax-ns#"
   xmlns:svg="http://www.w3.org/2000/svg"
   xmlns="http://www.w3.org/2000/svg"
   xmlns:sodipodi="http://sodipodi.sourceforge.net/DTD/sodipodi-0.dtd"
   xmlns:inkscape="http://www.inkscape.org/namespaces/inkscape"
   version="1.1"
   id="Layer_1"
   x="0px"
   y="0px"
   viewBox="0 0 33.099998 33.299999"
   xml:space="preserve"
   sodipodi:docname="search_icon.svg"
   width="33.099998"
   height="33.299999"
   inkscape:version="0.92.5 (2060ec1f9f, 2020-04-08)"><metadata
   id="metadata4657"><rdf:RDF><cc:Work
       rdf:about=""><dc:format>image/svg+xml</dc:format><dc:type
         rdf:resource="http://purl.org/dc/dcmitype/StillImage" /><dc:title></dc:title></cc:Work></rdf:RDF></metadata><defs
   id="defs4655" /><sodipodi:namedview
   pagecolor="#ffffff"
   bordercolor="#666666"
   borderopacity="1"
   objecttolerance="10"
   gridtolerance="10"
   guidetolerance="10"
   inkscape:pageopacity="0"
   inkscape:pageshadow="2"
   inkscape:window-width="1848"
   inkscape:window-height="1016"
   id="namedview4653"
   showgrid="false"
   fit-margin-top="0"
   fit-margin-left="0"
   fit-margin-right="0"
   fit-margin-bottom="0"
   inkscape:pagecheckerboard="true"
   inkscape:zoom="1.7481481"
   inkscape:cx="-7.9509124"
   inkscape:cy="18.812765"
   inkscape:window-x="72"
   inkscape:window-y="27"
   inkscape:window-maximized="1"
   inkscape:current-layer="Layer_1" />
<style
   type="text/css"
   id="style2">
	.st0{fill:url(#SVGID_1_);}
	.st1{clip-path:url(#SVGID_3_);}
	.st2{clip-path:url(#SVGID_5_);}
	.st3{clip-path:url(#SVGID_7_);}
	.st4{clip-path:url(#SVGID_9_);}
	.st5{fill:url(#SVGID_10_);}
	.st6{opacity:0.3;}
	.st7{fill:#1B1464;}
	.st8{opacity:0.5;}
	.st9{opacity:0.5;fill:#FFFFFF;enable-background:new    ;}
	.st10{enable-background:new    ;}
	.st11{fill:#FF3399;}
	.st12{fill:none;stroke:#FFFFFF;stroke-width:1.5;stroke-miterlimit:10;}
	.st13{fill:none;stroke:#FF3399;stroke-width:2;stroke-miterlimit:10;}
	.st14{fill:#FFFFFF;}
	.st15{fill:#008F99;}
	.st16{fill:#B9DD22;}
	.st17{fill:#19CF8D;}
	.st18{fill:#6600FF;}
	.st19{fill:#F5F3ED;}
	.st20{fill:none;stroke:#6600FF;stroke-width:3;stroke-miterlimit:10;}
	.st21{fill:none;stroke:#6600FF;stroke-width:2;stroke-miterlimit:10;}
	.st22{opacity:0.83;}
	.st23{font-family:'BlenderPro-Medium';}
	.st24{font-size:16.4018px;}
	.st25{fill:none;stroke:#CCCCCC;stroke-miterlimit:10;}
	.st26{fill:none;stroke:#1B1464;stroke-width:2;stroke-miterlimit:10;}
	.st27{font-family:'Bender-Black';}
	.st28{font-size:20.2245px;}
	.st29{letter-spacing:3;}
	.st30{font-size:62.1154px;}
	.st31{letter-spacing:10;}
	.st32{font-family:'Bender-Bold';}
	.st33{font-size:21px;}
	.st34{letter-spacing:2;}
	.st35{clip-path:url(#SVGID_12_);}
	.st36{clip-path:url(#SVGID_14_);}
	.st37{clip-path:url(#SVGID_16_);}
	.st38{clip-path:url(#SVGID_18_);}
	.st39{font-size:16.0705px;}
	.st40{letter-spacing:1;}
	.st41{fill:url(#SVGID_19_);}
	.st42{clip-path:url(#SVGID_21_);}
	.st43{fill:#CCCCCC;}
</style>
<linearGradient
   id="SVGID_1_"
   gradientUnits="userSpaceOnUse"
   x1="-1975.7885"
   y1="280.01981"
   x2="506.2114"
   y2="928.01978">
	<stop
   offset="3.004808e-03"
   style="stop-color:#000055"
   id="stop4" />
	<stop
   offset="7.941388e-02"
   style="stop-color:#000049"
   id="stop6" />
	<stop
   offset="0.2509"
   style="stop-color:#000034"
   id="stop8" />
	<stop
   offset="0.4417"
   style="stop-color:#000025"
   id="stop10" />
	<stop
   offset="0.665"
   style="stop-color:#00001C"
   id="stop12" />
	<stop
   offset="1"
   style="stop-color:#000019"
   id="stop14" />
</linearGradient>





<linearGradient
   id="SVGID_10_"
   gradientUnits="userSpaceOnUse"
   x1="-101.4996"
   y1="442.41971"
   x2="830.08789"
   y2="685.63843">
	<stop
   offset="3.004808e-03"
   style="stop-color:#000055"
   id="stop59" />
	<stop
   offset="7.941388e-02"
   style="stop-color:#000049"
   id="stop61" />
	<stop
   offset="0.2509"
   style="stop-color:#000034"
   id="stop63" />
	<stop
   offset="0.4417"
   style="stop-color:#000025"
   id="stop65" />
	<stop
   offset="0.665"
   style="stop-color:#00001C"
   id="stop67" />
	<stop
   offset="1"
   style="stop-color:#000019"
   id="stop69" />
</linearGradient>




























































































<g
   id="HvpjPf.tif_1_"
   transform="translate(-522.6,-431)">
	<g
   id="g3106">
		<path
   class="st14"
   d="m 539.4,431.5 c 2.5,0.7 4.6,1.9 6.4,3.8 1.7,1.8 2.8,3.9 3.4,6.4 0.7,3.2 0.2,6.2 -1.3,9.1 -0.5,0.9 -0.5,0.9 0.2,1.6 2,2 4.1,4.1 6.1,6.1 0.7,0.7 1.3,1.5 1.5,2.5 0,0.4 0,0.7 0,1.1 -0.4,1.1 -1.1,1.8 -2.2,2.2 -0.4,0 -0.7,0 -1.1,0 -1,-0.2 -1.8,-0.8 -2.5,-1.5 -2.1,-2.1 -4.2,-4.2 -6.3,-6.3 -0.5,-0.5 -0.6,-0.5 -1.2,-0.2 -1.5,0.9 -3.1,1.4 -4.8,1.6 -3,0.4 -5.9,-0.2 -8.5,-1.8 -2.5,-1.5 -4.4,-3.6 -5.5,-6.3 -0.5,-1.2 -0.9,-2.5 -1,-3.8 0,-0.1 0,-0.2 0,-0.3 0,-0.8 0,-1.7 0,-2.5 0.1,-0.7 0.2,-1.5 0.4,-2.2 1.3,-4.4 4,-7.5 8.3,-9.2 1.1,-0.4 2.3,-0.6 3.4,-0.8 0.8,0 1.7,0 2.5,0 0.7,0.3 1.4,0.3 2.2,0.5 z m -3.5,23 c 5.5,0 9.9,-4.4 9.9,-9.9 0,-5.7 -4.6,-9.9 -9.9,-9.9 -5.5,0 -9.9,4.5 -9.9,9.9 0,5.3 4.2,9.9 9.9,9.9 z"
   id="path3102"
   inkscape:connector-curvature="0"
   style="fill:#ffffff" />
		<path
   class="st14"
   d="m 532.4,439.9 c 0.2,0 0.4,-0.1 0.7,-0.2 3,-1.2 6.3,0.3 7.6,3 0.3,0.7 0.9,1.1 1.5,1 1,-0.1 1.6,-1.1 1.2,-2 -0.5,-1.1 -1.2,-2.2 -2.1,-3 -1.8,-1.7 -4,-2.4 -6.5,-2.3 -1,0 -2,0.3 -2.9,0.7 -0.7,0.3 -1,1 -0.8,1.6 0.1,0.8 0.6,1.2 1.3,1.2 z"
   id="path3104"
   inkscape:connector-curvature="0"
   style="fill:#ffffff" />
	</g>
</g>
<linearGradient
   id="SVGID_19_"
   gradientUnits="userSpaceOnUse"
   x1="1838.5004"
   y1="442.41971"
   x2="2770.0879"
   y2="685.63843">
	<stop
   offset="3.004808e-03"
   style="stop-color:#000055"
   id="stop3109" />
	<stop
   offset="7.941388e-02"
   style="stop-color:#000049"
   id="stop3111" />
	<stop
   offset="0.2509"
   style="stop-color:#000034"
   id="stop3113" />
	<stop
   offset="0.4417"
   style="stop-color:#000025"
   id="stop3115" />
	<stop
   offset="0.665"
   style="stop-color:#00001C"
   id="stop3117" />
	<stop
   offset="1"
   style="stop-color:#000019"
   id="stop3119" />
</linearGradient>


















































</svg>